<svg xmlns="http://www.w3.org/2000/svg" viewBox="0 0 512 512" style="height: 64px; width: 64px;"><defs><filter id="shadow-2" height="300%" width="300%" x="-100%" y="-100%"><feFlood flood-color="rgba(222, 205, 205, 1)" result="flood"></feFlood><feComposite in="flood" in2="SourceGraphic" operator="atop" result="composite"></feComposite><feGaussianBlur in="composite" stdDeviation="15" result="blur"></feGaussianBlur><feOffset dx="0" dy="0" result="offset"></feOffset><feComposite in="SourceGraphic" in2="offset" operator="over"></feComposite></filter></defs><circle cx="256" cy="256" r="256" fill="rgba(34, 34, 34, 1)"></circle><g class="" transform="translate(0,0)" style="touch-action: none;"><g><path class="" fill="rgba(255, 255, 255, 1)" d="M383.72 70.188C382.575 70.178 381.427 70.188 380.28 70.218C363.618 70.646 346.844 75.143 331.47 84.125C182.876 170.928 229.763 142.845 77.937 230.5L73.281 233.188L73.281 233.5C27.671 263.194 12.598 323.945 40.126 371.625C68.59 420.925 132.1 438.118 181.314 409.405C332.704 321.085 285.677 348.995 434.814 263.031C484.141 234.601 501.121 171.207 472.657 121.907C453.7 89.073 419.187 70.465 383.72 70.187Z" stroke="rgba(0, 0, 0, 1)" stroke-width="8" filter="url(#shadow-2)"></path><path class="selected" fill="rgba(255, 0, 0, 1)" d="M385.062 86.656C410.317 87.062 434.744 100.168 448.156 123.5C449.976 126.664 450.942 130.418 452.25 133.72C429.375 107.86 390.39 100.68 359.28 118.72C294.753 156.14 275.64 167.584 253.594 180.594C276.054 199.979 297.914 232.722 307.844 262.624C251.124 295.42 256.194 293.294 159 349.656C127.89 367.696 88.906 360.514 66.03 334.656C67.34 337.956 68.307 341.711 70.125 344.876C90.563 380.428 136.572 392.182 172.125 371.563C265.168 317.607 263.953 317.758 313.313 289.25C313.82 298.856 312.293 307.43 308.219 314.188C279.427 330.68 254.915 344.835 171.874 393.281C131.484 416.847 79.72 402.826 56.311 362.281C32.903 321.739 46.737 270.095 87.281 246.689L91.968 243.969C165.153 201.735 190.591 187.301 217.778 171.719C254.85 150.219 261.932 145.654 346.154 96.814C358.376 89.726 371.832 86.444 385.06 86.657Z"></path></g></g></svg>